<svg xmlns="http://www.w3.org/2000/svg" width="60" height="60"><path fill="var(--icon-fill-color)" d="M14 0c10.348-.767 17.921 3.18 25.734 9.79C44.956 14.883 48.828 20.71 50 28c-.141 3.039-.497 6.001-1 9 2.771-2.346 3.52-4.148 4.188-7.687l.48-2.45L54 25h2c3.596 5.057 4.76 8.988 4.512 15.219-1.137 6.178-4.962 10.838-9.824 14.656A62 62 0 0 1 47 57l-1.812.965c-9.55 4.047-22.516 3.588-32-.215C7.592 55.134 2.419 51.857 0 46c-.67-4.878-.623-8.73 1.563-13.187 1.933-2.231 3.888-4.26 6-6.313 3.754-3.657 6.273-6.987 6.625-12.375L14 12c2.661 1.018 3.805 1.667 5.266 4.164l.984 2.461 1.016 2.477L22 23c2.202-3.964 2.691-7.525 2-12-2.44-4.88-5.404-7.18-10-10zm15 32-.75 3.313c-1.664 4.91-3.534 5.77-7.937 8.124-2.473 1.345-2.473 1.345-3.125 3.75L17 49c3.124 3.332 5.541 4.356 10 4.563 3.64-.175 4.974-.547 8.188-2.5 2.177-3.68 2.306-5.628 1.605-9.77C35.465 37.453 33.02 34.668 30 32z"/></svg>