<svg xmlns="http://www.w3.org/2000/svg" width="60" height="60"><path fill="var(--icon-fill-color)" d="M0 15c7.741-.127 15.482-.214 23.224-.275q3.95-.037 7.9-.102c3.786-.06 7.57-.09 11.356-.111l3.568-.078c8.05-.003 8.05-.003 12.195 2.612 2.164 3.638 2.464 6.582 2.386 10.704l.007 2.23q0 2.325-.04 4.649c-.033 2.364-.02 4.725 0 7.09q-.01 2.265-.03 4.531l.015 2.128C60.467 53.17 59.39 55.629 56 59c-2.384 1.192-3.893 1.146-6.554 1.177l-2.863.039-3.103.022-3.184.025q-3.34.02-6.68.032c-3.404.017-6.808.061-10.212.105q-3.243.015-6.486.026l-3.084.053c-7.084-.022-7.084-.022-10.954-2.38-3.574-3.99-3.009-7.714-2.978-12.826l.005-2.614c.005-2.761.018-5.523.03-8.284q.008-2.805.014-5.61Q-.032 21.884 0 15m17 12v4h13v-4zm0 15v3h27v-3z"/><path fill="#BBB" d="m13.656-.496 2.847-.005q2.975.004 5.95.034c3.036.03 6.07.021 9.106.008q2.892.01 5.785.025l2.75-.008c3.457.051 6.225.167 9.447 1.47C51 3 51 3 52 11H0c0-7 0-7 1.396-9.406 3.98-2.436 7.68-2.147 12.26-2.09"/></svg>