<svg xmlns="http://www.w3.org/2000/svg" width="60" height="60"><path fill="var(--icon-fill-color)" d="M33 0c3.321 1.754 6.327 3.875 9.375 6.063l2.46 1.7a170 170 0 0 1 4.823 3.51c2.29 1.753 2.29 1.753 4.7 3.103C56.93 16.082 58.366 17.361 60 20c.937 5.114.986 10.023.823 15.207-.073 2.42-.082 4.833-.08 7.254a934 934 0 0 1-.071 4.64l-.014 2.176c-.132 3.515-.616 5.654-2.443 8.686-2.401 2.209-3.143 2.646-6.324 2.525l-2.286-.049-2.355-.127-2.402-.068c-1.95-.059-3.9-.148-5.848-.244l-.148-3.14-.227-4.11c-.03-.682-.062-1.364-.094-2.066-.281-5.16-.281-5.16-2.531-9.684-3.641-1.511-5.945-2.258-9.812-1.312C23.72 40.955 23.72 40.955 22 44c-.3 2.754-.51 5.426-.625 8.188l-.117 2.271A769 769 0 0 0 21 60c-2.564.108-5.123.187-7.687.25l-2.186.102-2.139.039-1.952.063C3.787 59.73 2.256 58.431 0 56c-.498-2.828-.68-5.048-.629-7.871l-.007-2.301q0-2.404.04-4.809c.033-2.445.02-4.888 0-7.333q.01-2.342.03-4.682L-.581 26.8C-.47 21.901.529 19.436 4 16c1.92-1.606 1.92-1.606 3.898-2.973l2.204-1.537 2.273-1.553 2.25-1.564a486 486 0 0 1 4.374-2.998c1.753-1.205 3.463-2.47 5.165-3.746C27.66-.378 29.03-.778 33 0"/></svg>