<svg xmlns="http://www.w3.org/2000/svg" width="60" height="60"><path fill="var(--icon-fill-color)" d="m30 21.563 2.625-.06C35 22 35 22 36.793 23.744c1.343 2.512 1.582 3.991 1.52 6.82l-.012 2.316C38 35 38 35 36 38c-2.75.398-2.75.398-6 .375l-3.25.023L24 38c-2.146-3.218-2.296-4.268-2.312-8l-.051-2.625C22 25 22 25 23.207 23.215c2.362-1.6 3.956-1.648 6.793-1.652M9.375 21.504l2.625.058 2.625.004C17 22 17 22 18.793 23.215c1.603 2.37 1.574 3.943 1.52 6.785l-.012 2.625C20 35 20 35 18 38c-2.496.398-2.496.398-5.437.375l-2.934.023C7 38 7 38 5.176 36.754c-1.478-2.205-1.578-3.55-1.551-6.191l-.023-2.31c.663-3.754 1.933-5.947 5.773-6.75M8 27q-.061 3.5 0 7h8q.062-3.5 0-7c-1.118-1.344-1.118-1.344-4-1.125-2.882-.219-2.882-.219-4 1.125M30 4.688l3.25-.051L36 5c2.081 3.122 2.274 3.933 2.25 7.5l.016 2.344C38 17 38 17 36 20c-2.75.363-2.75.363-6 .313l-3.25-.012C24 20 24 20 22 18c-.266-2.531-.266-2.531-.25-5.5l-.016-2.969c.55-5.244 3.777-4.827 8.266-4.844M27 8c-1.416 1.184-1.416 1.184-1.062 4.563L26 16h8V9a177 177 0 0 0-7-1M6 5c2.75-.363 2.75-.363 6-.312l3.25.011C18 5 18 5 20 7c.266 2.531.266 2.531.25 5.5l.016 2.969C20 18 20 18 18 20c-2.75.3-2.75.3-6 .313l-3.25.05L6 20c-2.081-3.122-2.274-3.933-2.25-7.5l-.016-2.344C4 8 4 8 6 5m2 4q-.061 3.5 0 7h8q.062-3.5 0-7c-1.118-1.344-1.118-1.344-4-1.125C9.118 7.656 9.118 7.656 8 9"/><path fill="var(--icon-fill-color)" d="M28 10h4v5l-5-1zM10 10l5 1-1 4h-4zM10 28l5 1-1 4-4-1z"/></svg>